<svg width="84" height="84" viewBox="0 0 84 84" fill="none" xmlns="http://www.w3.org/2000/svg">
<rect width="33.784" height="33.784" rx="6" transform="matrix(0.683025 0.730395 -0.683025 0.730395 23.0752 34.6487)" fill="white"/>
<path d="M73.7958 20.5956L65.1425 11.3422C64.346 10.4905 63.0546 10.4905 62.2581 11.3422C61.4616 12.194 61.4616 13.5749 62.2581 14.4267L70.9114 23.6801C71.7079 24.5318 72.9993 24.5318 73.7958 23.6801C74.5923 22.8283 74.5923 21.4474 73.7958 20.5956Z" fill="white"/>
<rect width="4.223" height="16.892" rx="2.1115" transform="matrix(0.683025 -0.730395 0.683025 0.730395 65.884 8.68448)" fill="white"/>
<rect width="4.223" height="16.892" rx="2.1115" transform="matrix(0.683025 -0.730395 0.683025 0.730395 54.481 7.28445)" fill="white"/>
<rect width="6.3345" height="67.568" rx="3.16725" transform="matrix(0.683025 0.730395 -0.683025 0.730395 65.1467 9.59662)" fill="white"/>
<rect width="9.33086" height="25.338" rx="4.66543" transform="matrix(0.683025 0.730395 -0.683025 0.730395 72.1414 0)" fill="white"/>
</svg>
